<svg id="Capa_1" enable-background="new 0 0 512 512" height="512" viewBox="0 0 512 512" width="512" xmlns="http://www.w3.org/2000/svg"><g><g><g><g><g><g><g><g><g><g><g><g><path d="m54.613 27.272v457.456c0 15.062 12.21 27.272 27.272 27.272h348.229c15.062 0 27.272-12.21 27.272-27.272v-364.454l-120.273-120.274h-255.227c-15.062 0-27.273 12.21-27.273 27.272z" fill="#eaecf0"/><path d="m363.38 26.267v113.059c0 11.381 9.226 20.606 20.606 20.606h19.148v352.068h26.98c15.062 0 27.272-12.21 27.272-27.272v-364.454z" fill="#d3d7de"/><path d="m337.113 0 120.274 120.274h-99.667c-11.38 0-20.606-9.226-20.606-20.606v-99.668z" fill="#df705d"/></g></g></g></g></g></g><g><path d="m259.668 77.28h-155.567c-4.267 0-7.726-3.459-7.726-7.726 0-4.268 3.459-7.726 7.726-7.726h155.566c4.267 0 7.726 3.459 7.726 7.726.001 4.267-3.458 7.726-7.725 7.726z" fill="#676e84"/></g><g><path d="m259.668 128.106h-155.567c-4.267 0-7.726-3.459-7.726-7.726 0-4.268 3.459-7.726 7.726-7.726h155.566c4.267 0 7.726 3.459 7.726 7.726.001 4.267-3.458 7.726-7.725 7.726z" fill="#676e84"/></g></g><path d="m387.154 429.994h-262.308c-11.457 0-20.745-9.288-20.745-20.745v-184.278c0-11.457 9.288-20.745 20.745-20.745h262.309c11.457 0 20.745 9.288 20.745 20.745v184.279c-.001 11.456-9.289 20.744-20.746 20.744z" fill="#f8e8bb"/><path d="m387.154 204.226h-33.541v225.768h33.541c11.457 0 20.745-9.288 20.745-20.745v-184.278c0-11.457-9.288-20.745-20.745-20.745z" fill="#ecd393"/></g><path d="m407.865 409.919-71.064-85.422c-6.437-7.738-18.317-7.738-24.754 0l-87.765 105.497h162.872c11.231 0 20.355-8.931 20.711-20.075z" fill="#5881cc"/><path d="m197.626 296.115-93.525 112.421v.714c0 11.457 9.288 20.745 20.745 20.745h208.912l-111.378-133.88c-6.437-7.738-18.316-7.738-24.754 0z" fill="#759ce7"/></g></g></g></g></svg>